# xmcd
#
# Track frame offsets: 
#        150
#        20774
#        37489
#        54184
#        73793
#        88188
#        102650
#        120589
#        138901
#        154185
#        172214
#        187079
#        204644
#        217830
#        231703
#        244644
#        258902
#        273468
#        289313
#        305398
#        320213
#        332967
#        344075
#
# Disc length: 4747 seconds
#
# Revision: 0
# Processed by: cddbd v1.5.2PL0 Copyright (c) Steve Scherf et al.
# Submitted via: ExactAudioCopy v0.99pb4
#
DISCID=7e128917
DTITLE=Champion Jack Dupree - Blues From The Gutter and Natural and Soulfu
DTITLE=l Blues (Disc1)
DYEAR=2010
DGENRE=Blues
TTITLE0=Strollin'
TTITLE1=T.B. Blues
TTITLE2=Can't Kick The Habit
TTITLE3=Evil Woman
TTITLE4=Nasty Boogie
TTITLE5=Junker's Blues
TTITLE6=Bad Blood
TTITLE7=Goin' Down Slow
TTITLE8=Frankie And Johnnie
TTITLE9=Stack-O-Lee
TTITLE10=Seafood Blues
TTITLE11=Death Of Big Bill Broonzy
TTITLE12=Don't Leave Me Mary
TTITLE13=Rampart Street Special
TTITLE14=How Long Blues
TTITLE15=Bad Life
TTITLE16=Mother-In-Law Blues
TTITLE17=Slow Drag
TTITLE18=Dennis Rag
TTITLE19=Bad Luck Bound To Change
TTITLE20=Goin' Down Slow
TTITLE21=Hard Feeling
TTITLE22=How Long, How Long Blues
EXTD=
EXTT0=
EXTT1=
EXTT2=
EXTT3=
EXTT4=
EXTT5=
EXTT6=
EXTT7=
EXTT8=
EXTT9=
EXTT10=
EXTT11=
EXTT12=
EXTT13=
EXTT14=
EXTT15=
EXTT16=
EXTT17=
EXTT18=
EXTT19=
EXTT20=
EXTT21=
EXTT22=
PLAYORDER=
